<?xml version="1.0" encoding="utf-8"?>
<!-- Generator: Adobe Illustrator 24.1.0, SVG Export Plug-In . SVG Version: 6.00 Build 0)  -->
<svg version="1.1" id="Layer_1" xmlns="http://www.w3.org/2000/svg" xmlns:xlink="http://www.w3.org/1999/xlink" x="0px" y="0px"
	 viewBox="0 0 1024 1024" style="enable-background:new 0 0 1024 1024;" xml:space="preserve">
<style type="text/css">
	.st0{fill:#85D651;}
	.st1{fill:#93572E;}
	.st2{fill:#B0F980;}
	.st3{fill:#E0FFCC;}
	.st4{fill:#604C3E;}
</style>
<g>
	<g>
		<path class="st0" d="M965.89,512.29c0,250.68-203.21,453.89-453.88,453.89c-250.68,0-453.89-203.21-453.89-453.89
			C58.11,261.61,261.33,58.39,512,58.39C762.68,58.39,965.89,261.61,965.89,512.29z"/>
		<path class="st1" d="M512,1008c-273.34,0-495.71-222.37-495.71-495.71C16.29,238.95,238.66,16.57,512,16.57
			c273.33,0,495.71,222.38,495.71,495.72C1007.71,785.63,785.34,1008,512,1008z M512,100.22c-227.22,0-412.07,184.85-412.07,412.07
			c0,227.21,184.85,412.06,412.07,412.06c227.21,0,412.06-184.85,412.06-412.06C924.07,285.07,739.21,100.22,512,100.22z"/>
	</g>
	<g>
		<path class="st2" d="M831.02,512.29c0,176.18-142.83,319.01-319.01,319.01c-176.19,0-319.02-142.83-319.02-319.01
			c0-176.18,142.83-319.02,319.02-319.02C688.18,193.27,831.02,336.1,831.02,512.29z"/>
	</g>
	<g>
		<path class="st3" d="M632.79,509.66c0-7.11-4.69-13.81-12.96-19.74c5.6-8.5,7.59-16.43,5.06-23.07
			c-2.87-7.52-11.18-12.42-23.22-14.74c2.79-11.95,1.71-21.52-3.99-27.21c-5.03-5.03-13.09-6.45-23.13-4.8
			c-2.04-9.97-6.26-16.99-12.75-19.89c-7.35-3.29-16.67-0.88-26.84,6c-6.48-10.43-14.02-16.43-22.06-16.43
			c-7.11,0-13.81,4.69-19.75,12.96c-8.5-5.61-16.43-7.59-23.07-5.05c-7.52,2.88-12.41,11.18-14.74,23.22
			c-11.95-2.79-21.52-1.71-27.21,3.99c-5.03,5.02-6.45,13.08-4.8,23.12c-9.97,2.04-16.98,6.25-19.89,12.75
			c-3.28,7.35-0.88,16.67,6,26.84c-10.42,6.48-16.43,14.01-16.43,22.05c0,7.11,4.69,13.82,12.97,19.75
			c-5.6,8.49-7.59,16.43-5.05,23.08c2.87,7.51,11.17,12.41,23.21,14.73c-2.79,11.95-1.71,21.52,3.99,27.22
			c5.03,5.03,13.09,6.45,23.13,4.79c2.04,9.97,6.25,17,12.74,19.89c7.35,3.28,16.67,0.88,26.84-5.99
			c6.47,10.42,14.01,16.42,22.06,16.42c7.11,0,13.81-4.69,19.74-12.96c8.49,5.61,16.43,7.6,23.08,5.06
			c7.52-2.87,12.41-11.17,14.74-23.22c11.95,2.79,21.52,1.71,27.21-3.98c5.02-5.03,6.45-13.09,4.8-23.13
			c9.97-2.04,16.99-6.25,19.89-12.75c3.29-7.35,0.88-16.68-6-26.84C626.79,525.25,632.79,517.71,632.79,509.66z"/>
	</g>
	<g>
		<path class="st4" d="M547.26,319.97c0,18.97-15.38,34.35-34.35,34.35c-18.98,0-34.36-15.38-34.36-34.35
			c0-18.98,15.38-34.36,34.36-34.36C531.88,285.61,547.26,300.99,547.26,319.97z"/>
	</g>
	<g>
		<path class="st4" d="M547.26,702.34c0,18.97-15.38,34.35-34.35,34.35c-18.98,0-34.36-15.38-34.36-34.35
			c0-18.98,15.38-34.35,34.36-34.35C531.88,667.98,547.26,683.36,547.26,702.34z"/>
	</g>
	<g>
		<path class="st4" d="M402.01,351.67c13.41,13.42,13.41,35.17,0,48.58c-13.41,13.42-35.16,13.42-48.58,0
			c-13.42-13.41-13.42-35.16,0-48.58C366.85,338.26,388.6,338.26,402.01,351.67z"/>
	</g>
	<g>
		<path class="st4" d="M672.38,622.05c13.42,13.42,13.42,35.17,0,48.59c-13.42,13.42-35.16,13.42-48.58,0
			c-13.41-13.42-13.41-35.17,0-48.59C637.22,608.63,658.97,608.63,672.38,622.05z"/>
	</g>
	<g>
		<path class="st4" d="M321.73,476.8c18.97,0.01,34.35,15.38,34.35,34.36c0,18.97-15.38,34.35-34.35,34.35
			c-18.98,0-34.36-15.37-34.36-34.35C287.37,492.18,302.75,476.8,321.73,476.8z"/>
	</g>
	<g>
		<path class="st4" d="M704.09,476.8c18.97,0,34.35,15.38,34.35,34.36c0,18.98-15.38,34.35-34.35,34.35
			c-18.97,0-34.35-15.38-34.35-34.35C669.74,492.18,685.12,476.8,704.09,476.8z"/>
	</g>
	<g>
		<path class="st4" d="M353.43,622.05c13.42-13.41,35.17-13.41,48.58,0c13.41,13.42,13.41,35.17,0,48.59
			c-13.41,13.42-35.16,13.42-48.58,0C340.01,657.22,340.01,635.46,353.43,622.05z"/>
	</g>
	<g>
		<path class="st4" d="M623.8,351.67c13.42-13.42,35.16-13.42,48.58,0c13.42,13.42,13.42,35.17,0,48.58
			c-13.42,13.42-35.16,13.42-48.58,0C610.39,386.84,610.39,365.09,623.8,351.67z"/>
	</g>
</g>
</svg>
